<svg preserveAspectRatio="none" width="100%" height="100%" overflow="visible" style="display: block;" viewBox="0 0 50.7903 56.0002" fill="none" xmlns="http://www.w3.org/2000/svg">
<g id="logo">
<path id="logo_2" fill-rule="evenodd" clip-rule="evenodd" d="M14.2124 0.000251204C14.9936 0.000251204 15.68 0.340872 16.163 0.861282L16.2568 0.967793L16.3564 1.08671L16.5336 1.46686C16.5671 1.52209 16.6007 1.58033 16.6324 1.64236C16.6499 1.67523 16.6624 1.70008 16.6658 1.7073C16.6718 1.71962 16.6767 1.73039 16.6803 1.73819L17.3369 3.13783L17.3641 3.19585L17.3849 3.25647C17.3869 3.26244 17.394 3.27996 17.4117 3.31015L17.4541 3.38261C17.5288 3.48133 17.6231 3.51654 17.6943 3.51654H17.7555L26.9942 1.1837L27.3914 1.08267L27.3974 1.08094L27.4038 1.0795C28.7268 0.757986 30.1062 0.591407 31.5175 0.591398C35.2252 0.591398 38.6756 1.74103 41.6046 3.71888C42.1628 4.09417 42.7005 4.50191 43.2146 4.9335L43.4337 5.11997L43.4363 5.12227C44.0832 5.68443 44.6981 6.28722 45.2747 6.93641C46.958 8.8141 48.3082 11.0308 49.2566 13.4737L49.3472 13.7109L49.3478 13.7127C50.1312 15.8103 50.6206 18.0763 50.7489 20.4476C50.7784 20.8861 50.7901 21.3259 50.7901 21.7593C50.7901 21.9935 50.7905 22.2608 50.778 22.5265C50.7253 24.1408 50.5125 25.7041 50.1444 27.2089L50.1447 27.2092C49.5555 29.6667 48.5669 31.9425 47.2655 33.9667L47.2658 33.967C47.0741 34.2655 46.8716 34.5634 46.6637 34.854L46.6628 34.8551C44.8901 37.3257 42.617 39.3639 40.0043 40.7701C38.5871 41.5322 37.0774 42.1136 35.4882 42.4797C35.4769 42.4827 35.4631 42.487 35.4477 42.4907C35.429 42.4951 35.4079 42.4996 35.3845 42.504C35.3507 42.5113 35.3232 42.5161 35.304 42.519C35.3002 42.5195 35.2964 42.5196 35.2927 42.5201C35.1328 42.5489 34.9879 42.5562 34.8656 42.5562C33.7912 42.5562 32.8997 41.9129 32.4588 41.0391L32.4135 40.949L32.4074 40.93L32.0827 40.2369L31.8642 39.7814C31.839 39.7317 31.8079 39.6888 31.7739 39.6539L31.6344 39.5107L31.5929 39.4212C31.5917 39.421 31.5906 39.4208 31.5894 39.4206L31.5479 39.4169C31.5327 39.4169 31.5202 39.4171 31.51 39.4175C31.5028 39.4177 31.4973 39.4181 31.4933 39.4183L31.4803 39.4218L31.4566 39.4304L31.4194 39.4414L27.0112 40.7268L14.6124 44.3571V51.7444L0 56.0002V4.06583L13.0774 0.230302L13.3949 0.134472L13.4018 0.132451L13.4085 0.130431L13.5944 0.0767424L13.646 0.0617328L13.6986 0.0516302C13.8444 0.0234973 14.0201 0.000269736 14.2124 0.000251204ZM28.1589 11.943C26.2498 11.943 24.4828 12.637 23.0605 13.8154C22.8745 13.9709 22.6557 14.0845 22.4151 14.1324C22.3221 14.1503 22.2292 14.1624 22.1253 14.1624C22.0214 14.1624 21.9282 14.1503 21.8352 14.1324C21.4797 14.0606 21.1678 13.851 20.9436 13.558C20.9162 13.5101 20.8834 13.4623 20.8451 13.4145V13.4084C20.7907 13.3386 20.7312 13.2739 20.6673 13.2148L20.5735 13.0139C20.3155 12.8033 19.9962 12.6799 19.6499 12.6799C19.546 12.6799 19.442 12.6857 19.3436 12.7096C19.2889 12.7216 19.2396 12.7335 19.1903 12.7515L14.9455 13.9958L14.7758 14.0437L13.4301 14.4386V32.9166L26.7338 29.0164C26.794 28.9925 26.8598 28.9747 26.92 28.9627C27.013 28.9448 27.1114 28.9327 27.2098 28.9327C27.6145 28.9327 27.9782 29.0998 28.2535 29.3749L28.3632 29.6101C28.4031 29.6567 28.4411 29.7056 28.4761 29.7571C28.4815 29.775 28.4926 29.793 28.5035 29.805C28.5308 29.8528 28.5582 29.9006 28.5855 29.9484L28.5474 29.8647C28.8209 30.2835 29.2749 30.5529 29.7836 30.5529C29.8821 30.5528 29.9805 30.5408 30.0734 30.5228H30.0844C30.0954 30.5288 30.1064 30.5228 30.1118 30.5168C30.1556 30.5048 30.1994 30.4929 30.2432 30.481C32.1906 29.9486 33.8643 28.6623 35.0185 26.9335C35.0677 26.8498 35.1226 26.7722 35.1718 26.6885H35.1773C36.1236 25.175 36.6817 23.3385 36.6817 21.3526C36.6817 21.0774 36.6707 20.8022 36.6488 20.5331C36.4519 17.9669 35.3141 15.6936 33.6238 14.1324C32.1414 12.7625 30.2376 11.943 28.1589 11.943Z" fill="url(#paint0_linear_54_1851)"/>
<g id="mask">
<mask id="mask0_54_1851" style="mask-type:alpha" maskUnits="userSpaceOnUse" x="0" y="0" width="51" height="56">
<path id="mask_2" fill-rule="evenodd" clip-rule="evenodd" d="M14.2124 0C14.9936 0 15.6801 0.340621 16.1631 0.861031L16.2569 0.967541L16.3565 1.08646L16.5337 1.46661C16.5672 1.52184 16.6008 1.58008 16.6324 1.64211C16.65 1.67498 16.6625 1.69983 16.6659 1.70705C16.6719 1.71936 16.6768 1.73014 16.6804 1.73794L17.337 3.13758L17.3642 3.1956L17.3849 3.25622C17.387 3.26218 17.394 3.27971 17.4118 3.3099L17.4542 3.38235C17.5289 3.48108 17.6232 3.51628 17.6944 3.51629H17.7556L26.9943 1.18345L27.3914 1.08242L27.3975 1.08069L27.4038 1.07925C28.7269 0.757735 30.1062 0.591156 31.5176 0.591147C35.2253 0.591147 38.6757 1.74078 41.6047 3.71863C42.1628 4.09392 42.7006 4.50166 43.2147 4.93325L43.4338 5.11971L43.4364 5.12202C44.0833 5.68418 44.6982 6.28697 45.2748 6.93616C46.9581 8.81385 48.3083 11.0306 49.2567 13.4734L49.3473 13.7107L49.3479 13.7124C50.1313 15.81 50.6207 18.0761 50.749 20.4474C50.7784 20.8858 50.7902 21.3257 50.7902 21.759C50.7902 21.9933 50.7906 22.2606 50.7781 22.5262C50.7254 24.1406 50.5126 25.7039 50.1445 27.2086L50.1448 27.2089C49.5556 29.6664 48.567 31.9423 47.2656 33.9664L47.2659 33.9667C47.0742 34.2653 46.8717 34.5631 46.6638 34.8537L46.6629 34.8549C44.8902 37.3255 42.6171 39.3636 40.0044 40.7698C38.5872 41.532 37.0775 42.1133 35.4882 42.4795C35.477 42.4825 35.4632 42.4868 35.4478 42.4904C35.4291 42.4949 35.4079 42.4993 35.3846 42.5037C35.3508 42.511 35.3233 42.5159 35.3041 42.5187C35.3003 42.5193 35.2965 42.5194 35.2928 42.5199C35.1329 42.5486 34.9879 42.5559 34.8656 42.5559C33.7912 42.5559 32.8998 41.9127 32.4589 41.0388L32.4136 40.9488L32.4075 40.9297L32.0828 40.2367L31.8643 39.7812C31.8391 39.7314 31.8079 39.6886 31.7739 39.6536L31.6345 39.5104L31.593 39.421C31.5918 39.4207 31.5906 39.4206 31.5895 39.4204L31.5479 39.4166C31.5328 39.4166 31.5203 39.4169 31.5101 39.4172C31.5029 39.4175 31.4974 39.4178 31.4934 39.4181L31.4804 39.4215L31.4567 39.4302L31.4195 39.4412L27.0113 40.7265L14.6125 44.3568V51.7441L8.42193e-05 55.9999V4.06558L13.0775 0.230051L13.395 0.13422L13.4019 0.1322L13.4086 0.130179L13.5944 0.0764912L13.6461 0.0614816L13.6986 0.051379C13.8444 0.0232461 14.0202 1.85319e-05 14.2124 0ZM28.1589 11.9427C26.2498 11.9427 24.4828 12.6367 23.0606 13.8152C22.8746 13.9706 22.6558 14.0843 22.4152 14.1321C22.3222 14.15 22.2293 14.1621 22.1254 14.1621C22.0214 14.1621 21.9283 14.1501 21.8353 14.1321C21.4798 14.0603 21.1679 13.8508 20.9437 13.5577C20.9163 13.5099 20.8835 13.4621 20.8452 13.4142V13.4082C20.7908 13.3384 20.7313 13.2736 20.6674 13.2145L20.5736 13.0136C20.3156 12.8031 19.9962 12.6796 19.6499 12.6796C19.546 12.6796 19.4421 12.6855 19.3437 12.7094C19.289 12.7213 19.2397 12.7333 19.1904 12.7512L14.9456 13.9956L14.7759 14.0435L13.4302 14.4384V32.9163L26.7339 29.0161C26.7941 28.9922 26.8599 28.9744 26.9201 28.9625C27.013 28.9445 27.1114 28.9324 27.2099 28.9324C27.6146 28.9324 27.9783 29.0995 28.2536 29.3746L28.3633 29.6099C28.4032 29.6565 28.4412 29.7053 28.4762 29.7568C28.4816 29.7747 28.4927 29.7928 28.5036 29.8047C28.5309 29.8525 28.5582 29.9004 28.5856 29.9482L28.5475 29.8645C28.821 30.2832 29.275 30.5526 29.7837 30.5526C29.8822 30.5526 29.9806 30.5405 30.0735 30.5226H30.0845C30.0954 30.5286 30.1065 30.5225 30.1119 30.5165C30.1557 30.5046 30.1995 30.4927 30.2433 30.4807C32.1906 29.9483 33.8644 28.662 35.0186 26.9333C35.0678 26.8496 35.1227 26.7719 35.1719 26.6882H35.1774C36.1237 25.1748 36.6818 23.3383 36.6818 21.3523C36.6818 21.0772 36.6708 20.802 36.6489 20.5328C36.452 17.9666 35.3142 15.6934 33.6239 14.1321C32.1414 12.7622 30.2376 11.9427 28.1589 11.9427Z" fill="var(--fill-0, white)"/>
</mask>
<g mask="url(#mask0_54_1851)">
<path id="shw" d="M21.5774 16.1113L12.4144 -11.6733L59.9671 -19.7344L67.0955 41.3821L44.6319 52.9095L33.4001 45.0768L27.0453 25.569L21.5774 16.1113Z" fill="url(#paint1_linear_54_1851)"/>
</g>
</g>
</g>
<defs>
<linearGradient id="paint0_linear_54_1851" x1="48.6715" y1="12.5193" x2="6.54087" y2="50.9223" gradientUnits="userSpaceOnUse">
<stop stop-color="#5228FF"/>
<stop offset="1" stop-color="#AE18FF"/>
</linearGradient>
<linearGradient id="paint1_linear_54_1851" x1="51.8683" y1="14.1376" x2="22.583" y2="27.27" gradientUnits="userSpaceOnUse">
<stop stop-color="#794DEC" stop-opacity="0"/>
<stop offset="1" stop-color="#280977"/>
</linearGradient>
</defs>
</svg>
