<svg preserveAspectRatio="none" width="100%" height="100%" overflow="visible" style="display: block;" viewBox="0 0 144.14 44.5811" fill="none" xmlns="http://www.w3.org/2000/svg">
<g id="txt">
<g id="pitaco">
<path fill-rule="evenodd" clip-rule="evenodd" d="M16.3749 5.99225e-06C23.9507 1.34913e-05 29.711 4.53756 29.711 12.6267C29.711 21.0707 23.3992 29.0396 13.3362 29.0396C5.76037 29.0396 5.04415e-05 24.5022 1.99769e-05 16.4542C1.92353e-05 7.97201 6.35287 6.8684e-06 16.3749 5.99225e-06ZM16.02 6.35288C10.3769 6.35288 8.64056 12.8642 8.64056 16.6888C8.64057 20.9093 10.7699 22.6867 13.6911 22.6868C19.3341 22.6868 21.0705 16.1755 21.0705 12.3509C21.0705 8.13035 18.9412 6.3529 16.02 6.35288Z" fill="var(--fill-0, black)"/>
<path d="M45.1444 0.00315638C52.7203 0.00315571 58.3222 4.54038 58.3222 12.6677L58.3165 12.6648C58.3164 21.0678 52.16 29.0396 41.9826 29.0396C34.8027 29.0396 30.3446 25.1327 29.8313 18.6244C29.7933 18.3869 29.9106 18.2695 30.1481 18.2695L37.5275 18.2695C37.724 18.2696 37.8823 18.3869 37.9234 18.6244C38.2783 21.4664 40.0146 22.6896 42.4606 22.6896C48.0245 22.6896 49.6816 16.1402 49.6816 12.3918C49.6816 8.1303 47.5524 6.35575 44.6311 6.35575C41.7099 6.35576 40.2112 8.13041 39.3841 10.38C39.3049 10.5765 39.1464 10.6555 38.9499 10.6555L31.4153 10.6555C31.1777 10.6555 31.0603 10.5382 31.0985 10.3388C32.6383 4.54032 37.5686 0.00316675 45.1444 0.00315638Z" fill="var(--fill-0, black)"/>
<path fill-rule="evenodd" clip-rule="evenodd" d="M66.564 0.712915C66.7605 0.712945 66.9599 0.871303 66.9599 1.06779L67.2766 6.39413L76.193 6.39413L78.9559 0.988453C79.035 0.79202 79.1523 0.712929 79.3517 0.712914L88.1097 0.712915C88.3853 0.712937 88.4644 0.909295 88.3471 1.14685L73.0312 28.0922C72.952 28.2505 72.7935 28.3299 72.597 28.3299L61.4723 28.3299C61.2758 28.3299 61.0764 28.1712 61.0764 27.9747L58.592 1.06779C58.5539 0.830261 58.6713 0.712953 58.9088 0.712915L66.564 0.712915ZM68.2975 22.0561L72.8728 13.0225L67.7049 13.0225L68.2975 22.0561Z" fill="var(--fill-0, black)"/>
<path d="M101.56 0.709763C101.798 0.709763 101.877 0.868316 101.836 1.10589L98.4424 14.6798L96.8645 22.2145L104.086 22.2145C104.323 22.2145 104.44 22.3728 104.402 22.6074L103.141 28.0131C103.103 28.2506 102.944 28.3299 102.745 28.3299L79.4279 28.3299C79.1904 28.3298 79.0733 28.1712 79.1114 27.9366L80.3725 22.5312C80.4106 22.2937 80.5689 22.2145 80.7683 22.2145L88.0684 22.2145L89.9634 14.6798L92.8434 1.0297L92.8405 1.02655C92.8787 0.789095 93.037 0.709791 93.2364 0.709764L101.56 0.709763Z" fill="var(--fill-0, black)"/>
<path d="M119 0.709764C119.237 0.709826 119.355 0.868363 119.316 1.10589L116.082 14.2427L113.081 28.0131C113.043 28.2506 112.884 28.3299 112.685 28.3299L104.637 28.3299C104.399 28.3299 104.282 28.1712 104.32 27.9366L107.714 14.2456L110.556 1.0297L110.556 1.02655C110.594 0.789068 110.752 0.709765 110.952 0.709765L119 0.709764Z" fill="var(--fill-0, black)"/>
<path fill-rule="evenodd" clip-rule="evenodd" d="M143.816 0.709764C144.053 0.709764 144.171 0.868317 144.132 1.10589L140.856 14.1665L137.897 28.0131C137.859 28.2506 137.7 28.3299 137.504 28.3299L126.532 28.3299C119.193 28.3299 116.234 24.819 116.234 19.9268C116.234 13.6532 120.968 9.23316 129.333 9.23316L133.398 9.23316L135.213 1.02655C135.251 0.789043 135.41 0.709765 135.609 0.709765L143.816 0.709764ZM129.215 15.2693C126.018 15.2693 124.64 17.0849 124.64 19.3726C124.64 21.0296 125.429 22.3319 127.916 22.3319L130.362 22.3319L132.057 15.2693L129.215 15.2693Z" fill="var(--fill-0, black)"/>
</g>
<g id="REI DO">
<path d="M136.55 32.85C136.649 32.85 136.695 32.899 136.671 33.0052L135.399 38.3888L134.143 44.14C134.12 44.238 134.052 44.287 133.953 44.287L128.641 44.287C125.392 44.287 123.904 42.9963 124.483 40.4475C124.835 38.8953 125.929 37.7107 127.6 37.1062L125.829 33.0298C125.785 32.9317 125.845 32.85 125.969 32.85L129.829 32.85C129.903 32.85 129.959 32.8909 129.986 32.9562L131.158 36.036L131.442 36.6406L132.201 36.6406L132.993 33.0052C133.017 32.899 133.086 32.85 133.177 32.85L136.55 32.85ZM131.645 39.124L129.649 39.124C129.055 39.124 128.219 39.4671 128.015 40.3658C127.784 41.3787 128.199 41.8036 129.139 41.8036L131.02 41.8036L131.645 39.124Z" fill="var(--fill-0, black)"/>
<path d="M124.301 32.85C124.4 32.85 124.447 32.899 124.423 33.0052L123.121 38.3725L121.894 44.14C121.872 44.238 121.803 44.287 121.704 44.287L113.127 44.287C113.036 44.287 112.991 44.2298 113.012 44.14L113.518 41.9098C113.541 41.8117 113.611 41.7545 113.702 41.7545L118.766 41.7545L119.177 40.088L114.641 40.088C114.551 40.088 114.506 40.0308 114.526 39.941L115.033 37.7107C115.055 37.6127 115.126 37.5555 115.216 37.5555L119.752 37.5555L120.209 35.3988L115.013 35.3988C114.923 35.3988 114.878 35.3417 114.898 35.2518L115.409 33.0052C115.431 32.9072 115.501 32.85 115.592 32.85L124.301 32.85Z" fill="var(--fill-0, black)"/>
<path d="M113.581 32.85C113.68 32.85 113.726 32.899 113.702 33.0052L112.399 38.4542L111.173 44.14C111.151 44.238 111.082 44.287 110.983 44.287L107.643 44.287C107.553 44.287 107.506 44.238 107.528 44.14L108.885 38.4542L110.057 33.0052C110.081 32.899 110.15 32.85 110.241 32.85L113.581 32.85Z" fill="var(--fill-0, black)"/>
<path d="M104.5 32.85C104.599 32.85 104.645 32.899 104.621 33.0052L103.329 38.4051L102.093 44.14C102.07 44.238 102.002 44.287 101.903 44.287L97.4327 44.287C94.0349 44.287 91.2131 42.7675 92.2038 38.4051C93.1611 34.1898 96.5167 32.85 99.9969 32.85L104.5 32.85ZM100.383 35.3988L99.2862 35.3988C97.6038 35.3988 96.4579 36.2321 95.957 38.4378C95.4227 40.7906 96.3089 41.7545 97.9088 41.7545L98.9397 41.7545L99.735 38.4705L100.383 35.3988Z" fill="var(--fill-0, black)"/>
<path d="M86.3875 32.5559C90.1646 32.5559 91.7336 35.1048 90.9582 38.5195C90.1345 42.1467 87.4668 44.5811 83.6567 44.5811C79.9125 44.5811 77.9562 42.2284 78.7985 38.5195C79.5702 35.1211 82.5939 32.5559 86.3875 32.5559ZM85.7534 35.2028C84.104 35.2028 83.0229 36.4772 82.5591 38.5195C82.0916 40.5782 82.5589 41.9343 84.2577 41.9343C85.9401 41.9343 87.0048 40.6599 87.4908 38.5195C87.9509 36.4935 87.4028 35.2028 85.7534 35.2028Z" fill="var(--fill-0, black)"/>
</g>
</g>
</svg>
